<svg width="1119" height="698" viewBox="0 0 1119 698" fill="none" xmlns="http://www.w3.org/2000/svg">
<path fill-rule="evenodd" clip-rule="evenodd" d="M386 698L401 591V489V439L374 385L333 371L267 323H243L219 290L197 306L186 296L177 277V254V241L151 213L162 200L177 218L186 200L197 192V180V170L219 163H229L248 192H258L253 163L235 137H219L202 102V84L213 70H219L213 27L229 65H248L258 77L267 96L285 116L298 145L303 122L298 107L280 84V65L285 48L303 36H320L323 26L349 36L355 54L349 77L364 84L370 73L374 54V27V11L386 5L422 0L432 11L438 27V48L441 58L464 54H493L499 70V84V107L490 126L472 145L464 192L448 213L432 241L448 260L464 246L472 224V200L477 170L499 137H507L513 96L519.933 122L534 102L560 90H579L598 96V126V137L593 156L598 163L612 170L606 192L584 224L560 246L534 241L513 246L499 254L490 277L464 290V358L490 353L499 328L513 306L534 290L560 277L579 267L573 254L584 234L606 213L617 205H637L650 234V246L641 271L624 290L598 296H579L560 317L534 323L513 345V366L477 385L464 398L448 432V546L438 698H386ZM370 267L355 277L333 218V188L326 170L320 156L326 137L338 150L355 170L360 188L370 213V246V267ZM394 345L416 317V306H401L386 317L394 345ZM438 385L427 398L416 380L422 366L432 345L438 358V385ZM333 336L320 317L303 306L309 323L333 336ZM229 277L253 296V277L235 267L229 277Z" fill="#F4F4F4"/>
<path d="M589.5 584.5L576.5 698H563.5L576.5 604L571.5 584.5L566 571L554 562L548.5 564L529.5 562L518 554.5L512.5 548H507.5L496.5 542L487 532L476.5 523.5V515L482.5 510L496.5 507.5V518.5L501.5 528L504 523.5L501.5 515L504 505H512.5L521.5 507.5L524 515L518 523.5L512.5 532H518L521.5 528L524 521L532.5 515L545.5 521L550.5 529.5L545.5 542L539 545.5H535L529.5 542L524 545.5L529.5 550.5H539L548.5 545.5L556.5 550.5L571.5 558L576.5 550.5L581.5 552L579 562.5L581.5 571L594.5 558L589.5 542V521L581.5 515L571.5 505V493.5L581.5 486H592L599 493.5L601.5 507.5V521L599 545.5L601.5 558L613.5 550.5L616 542L622 534.5L616 528V521L622 515V507.5L629 505L638 510L641 515L638 523.5L633.5 532L626 545.5V552L631.5 550.5L633.5 545.5L638 537H648L656.5 542V552L654 566L648 571L644.5 564L633.5 562.5L626 562L616 562.5L601.5 571L589.5 584.5Z" fill="#F4F4F4"/>
<path fill-rule="evenodd" clip-rule="evenodd" d="M296.5 663.5L299 698H284.25V663.5L279 651.5L267.5 636.5L261 622.5L248 618.5L236.5 608L232 601.5V595L236.5 582.5H243.5L248 588.5V601.5L261 608L267.5 590.5L258.5 578.5L248 570L240 566L236.5 558.5V549.5L240 541L248 536L258.5 538.5L261 546V556L256 562L261 568L264 562H270.5V568L273 578.5L279 582.5L288.5 578.5L289.5 570L296.5 575L289.5 586L285.5 595V601.5L294.5 608L302.5 599V590.5L296.5 575L284.25 566L279 562V556L289.5 546H304L316 556L313.5 566.5L309.5 575L313.5 586L316 575H325.5L329 588.5L322.5 599L313.5 609.5L299 618.5V631L296.5 663.5Z" fill="#F4F4F4"/>
<path fill-rule="evenodd" clip-rule="evenodd" d="M1041.5 698V639.5L1045.5 597.5L1050 564.5L1064 558L1071 549L1077.5 542L1086.5 535.5H1092L1096 528.5L1092 523.5L1098.5 518.5L1103 523.5L1107 521L1113 518.5L1119 510.5V503.5V495.5H1107L1098.5 498V490.5H1089.5H1081V495.5L1077.5 503.5V510.5L1074 523.5V528.5L1064 535.5L1060.5 546L1055 549V535.5L1052 530L1058 521L1067 510.5L1074 500.5L1071 495.5L1064 490.5H1058L1048.5 488.5L1045.5 490.5L1038 485.5L1030 488.5V495.5L1035 500.5V510.5V518.5H1023.5H1015V523.5L1017.5 530L1027.5 542L1030 549L1038 558L1041.5 564.5L1032.5 611.5L1030 662V698H1041.5ZM1050 546L1045.5 549L1041.5 546L1038 539V530H1045.5L1050 539V546Z" fill="#F4F4F4"/>
<path fill-rule="evenodd" clip-rule="evenodd" d="M47 698V611L53 596.5L60 588.5L66.5 583L73.5 580.5L79.5 574.5L83.5 563.5L79.5 558.5L73.5 555L66.5 563.5L62.5 570V558.5L66.5 550.5L73.5 547V541L66.5 535H56.5L53 541V550.5V558.5L56.5 566.5V574.5L53 583L47 578L45 572L42 566.5H37L33.5 558.5L39.5 550.5L42 541L45 532.5L47 523.5H37L33.5 526L29.5 532.5L24 541H19V535L27 530V523.5L19 521H11H4L0 526V532.5L2 542.5L4 550.5L11 555L19 563.5L24 578L27 593L33.5 607L37 643L33.5 698H47ZM49 591L42 599L39.5 596.5L33.5 588.5V583L37 574.5L45 583L49 591Z" fill="#F4F4F4"/>
</svg>
