<svg width="1104" height="701" viewBox="0 0 1104 701" fill="none" xmlns="http://www.w3.org/2000/svg">
<path d="M263 18L260 28M260 28L257 38H240L222 50L217 67V86L235 109L240 124L235 147L222 118L204 98L195 79L185 67H166L150 29L156 72H150L139 86V104L156 139H172L190 165L195 194H185L166 165H156L134 172V182V194L123 202L114 220L99 202L88 215L114 243V256V279L123 298L134 308L156 292L180 325H204L270 373L311 387L338 441V491V593L323 700H375L385 548V434L401 400L414 387L450 368V347L471 325L497 319L516 298H535L561 292L578 273L587 248V236L574 207H554L543 215L521 236L510 256L516 269L497 279L471 292L450 308L436 330L427 355L401 360V292L427 279L436 256L450 248L471 243L497 248L521 226L543 194L549 172L535 165L530 158L535 139V128V98L516 92H497L471 104L456.933 124M260 28L286 38L292 56L286 79L301 86L307 75L311 56V29V13L323 7L359 2L369 13L375 29V50L378 60L401 56H430L436 72V86V109L427 128L409 147L401 194L385 215L369 243L385 262L401 248L409 226V202L414 172L436 139H444L450 98L456.933 124M458 128L456.933 124M292 279L307 269V248V215L297 190L292 172L275 152L263 139L257 158L263 172L270 190V220L292 279ZM364 400L375 387V360L369 347L359 368L353 382L364 400ZM331 347L353 319V308H338L323 319L331 347ZM270 338L257 319L240 308L246 325L270 338ZM190 298L166 279L172 269L190 279V298Z" stroke="#D0D0D0" stroke-width="2"/>
<path d="M255.75 494.5L250.5 490.5V484.5L261 474.5H275.5L287.5 484.5L285 495L281 503.5L285 514.5L287.5 503.5H297L300.5 517L294 527.5L285 538L270.5 547V559.5L268 592L270.5 626.5H255.75V592L250.5 580L239 565L232.5 551L219.5 547L208 536.5L203.5 530V523.5L208 511H215L219.5 517V530L232.5 536.5L239 519L230 507L219.5 498.5L211.5 494.5L208 487V478L211.5 469.5L219.5 464.5L230 467L232.5 474.5V484.5L227.5 490.5L232.5 496.5L235.5 490.5H242V496.5L244.5 507L250.5 511L258.375 496.5M255.75 494.5L266 507L261 514.5L257 523.5V530L266 536.5L274 527.5V519L268 503.5L261 498.5L258.375 496.5M255.75 494.5L258.375 496.5M548 630.5L561 517L573 503.5L587.5 495L597.5 494.5L605 495L616 496.5L619.5 503.5L625.5 498.5L628 484.5V474.5L619.5 469.5H609.5L605 478L603 483L597.5 484.5V478L605 464.5L609.5 456L612.5 447.5L609.5 442.5L600.5 437.5L593.5 440V447.5L587.5 453.5V460.5L593.5 467L587.5 474.5L585 483L573 490.5L570.5 478L573 453.5V440L570.5 426L563.5 418.5H553L543 426V437.5L553 447.5L561 453.5V474.5L566 490.5L553 503.5L550.5 495L553 484.5L548 483L543 490.5L528 483L520 478L510.5 483H501L495.5 478L501 474.5L506.5 478H510.5L517 474.5L522 462L517 453.5L504 447.5L495.5 453.5L493 460.5L489.5 464.5H484L489.5 456L495.5 447.5L493 440L484 437.5H475.5L473 447.5L475.5 456L473 460.5L468 451V440L454 442.5L448 447.5V456L458.5 464.5L468 474.5L479 480.5H484L489.5 487L501 494.5L520 496.5L525.5 494.5L537.5 503.5L543 517L548 536.5L535.5 628L548 630.5ZM1025.5 604V545.5L1029.5 503.5L1034 470.5L1048 464L1055 455L1061.5 448L1070.5 441.5H1076L1080 434.5L1076 429.5L1082.5 424.5L1087 429.5L1091 427L1097 424.5L1103 416.5V409.5V401.5H1091L1082.5 404V396.5H1073.5H1065V401.5L1061.5 409.5V416.5L1058 429.5V434.5L1048 441.5L1044.5 452L1039 455V441.5L1036 436L1042 427L1051 416.5L1058 406.5L1055 401.5L1048 396.5H1042L1032.5 394.5L1029.5 396.5L1022 391.5L1014 394.5V401.5L1019 406.5V416.5V424.5H1007.5H999V429.5L1001.5 436L1011.5 448L1014 455L1022 464L1025.5 470.5L1016.5 517.5L1014 568V604H1025.5ZM1029.5 455L1034 452V445L1029.5 436H1022V445L1025.5 452L1029.5 455ZM1065 427L1070.5 424.5V419L1065 421.5V427Z" stroke="#D0D0D0" stroke-width="2"/>
<path d="M48 485.5V572.5H34.5L38 517.5L34.5 481.5L28 467.5L25 452.5L20 438L12 429.5L5 425L3 417L1 407V400.5L5 395.5H12H20L28 398V404.5L20 409.5V415.5H25L30.5 407L34.5 400.5L38 398H48L46 407L43 415.5L40.5 425L34.5 433L38 441H43L46 446.5L48 452.5L54 457.5L57.5 449V441L54 433V425V415.5L57.5 409.5H67.5L74.5 415.5V421.5L67.5 425L63.5 433V444.5L67.5 438L74.5 429.5L80.5 433L84.5 438L80.5 449L74.5 455L67.5 457.5L61 463L54 471L48 485.5Z" stroke="#D0D0D0" stroke-width="2"/>
</svg>
